<svg xmlns="http://www.w3.org/2000/svg" width="320" height="320" viewBox="0 0 320 320">
  <defs>
    <linearGradient id="top" x1="0" y1="0" x2="0" y2="1">
      <stop offset="0" stop-color="#4a5da8"/>
      <stop offset="1" stop-color="#2a3560"/>
    </linearGradient>
    <linearGradient id="rock" x1="0" y1="0" x2="0" y2="1">
      <stop offset="0" stop-color="#232a52"/>
      <stop offset="1" stop-color="#0e1228"/>
    </linearGradient>
    <radialGradient id="halo" cx="0.5" cy="0.5" r="0.5">
      <stop offset="0" stop-color="#8ea2ff" stop-opacity="0.35"/>
      <stop offset="1" stop-color="#8ea2ff" stop-opacity="0"/>
    </radialGradient>
  </defs>

  <!-- 岛底光晕 -->
  <ellipse cx="160" cy="185" rx="130" ry="60" fill="url(#halo)"/>

  <!-- 岛顶草地 -->
  <path d="M45 150 Q160 92 275 150 Q160 186 45 150 Z" fill="url(#top)"/>

  <!-- 岛底浮岩 -->
  <path d="M75 160 Q160 202 245 160 L160 268 Z" fill="url(#rock)"/>

  <!-- 环绕的小浮石 -->
  <path d="M58 238 L76 230 L83 248 L64 255 Z" fill="#1a2142"/>
  <path d="M236 262 L253 256 L258 272 L241 278 Z" fill="#171d3a"/>
  <path d="M120 290 L132 285 L136 296 L124 301 Z" fill="#141a34"/>

  <!-- 岛上的星光树 -->
  <rect x="156" y="116" width="6" height="24" rx="3" fill="#1a2142"/>
  <path d="M159 90 C161 103 165 106 177 109 C165 112 161 115 159 128 C157 115 153 112 141 109 C153 106 157 103 159 90 Z" fill="#f5d9a0"/>

  <!-- 环绕星点 -->
  <circle cx="70" cy="88" r="1.6" fill="#e9ecff" opacity="0.9"/>
  <circle cx="255" cy="122" r="1.3" fill="#f5d9a0" opacity="0.9"/>
  <circle cx="222" cy="58" r="1.2" fill="#a0b4ff" opacity="0.9"/>
  <circle cx="96" cy="258" r="1.2" fill="#e9ecff" opacity="0.7"/>
  <circle cx="285" cy="205" r="1.4" fill="#e9ecff" opacity="0.8"/>
  <path d="M256 76 C257 82 259 84 266 86 C259 88 257 90 256 96 C255 90 253 88 246 86 C253 84 255 82 256 76 Z" fill="#e9ecff" opacity="0.85"/>
</svg>
