<svg xmlns="http://www.w3.org/2000/svg" width="960" height="640" viewBox="0 0 960 640">
<defs>
    <linearGradient id="bgstartrails0" x1="0" y1="0" x2="0" y2="1">
      <stop offset="0" stop-color="#0b1030"/>
      <stop offset="1" stop-color="#05060f"/>
    </linearGradient>
    <radialGradient id="glowstartrails0" cx="0.75" cy="0.2" r="0.9">
      <stop offset="0" stop-color="#8ea2ff" stop-opacity="0.35"/>
      <stop offset="0.6" stop-color="#8ea2ff" stop-opacity="0.08"/>
      <stop offset="1" stop-color="#8ea2ff" stop-opacity="0"/>
    </radialGradient>
    <filter id="blurstartrails0" x="-40%" y="-40%" width="180%" height="180%"><feGaussianBlur stdDeviation="42"/></filter>
  </defs>
  <rect width="960" height="640" fill="url(#bgstartrails0)"/>
  <rect width="960" height="640" fill="url(#glowstartrails0)"/>
<circle cx="881.1" cy="394.7" r="0.93" fill="#e9ecff" fill-opacity="0.36"/><circle cx="910.8" cy="359.8" r="1.93" fill="#e9ecff" fill-opacity="0.80"/><circle cx="623.6" cy="98.7" r="2.11" fill="#e9ecff" fill-opacity="0.44"/><circle cx="898.4" cy="57.9" r="0.77" fill="#e9ecff" fill-opacity="0.28"/><circle cx="797.1" cy="83.2" r="0.96" fill="#a0b4ff" fill-opacity="0.56"/><circle cx="64.6" cy="453.7" r="1.38" fill="#a0b4ff" fill-opacity="0.55"/><circle cx="191.1" cy="349.5" r="1.07" fill="#f5d9a0" fill-opacity="0.53"/><circle cx="102.6" cy="188.9" r="1.18" fill="#f5d9a0" fill-opacity="0.71"/><circle cx="816.8" cy="109.3" r="2.18" fill="#a0b4ff" fill-opacity="0.83"/><circle cx="511.5" cy="280.1" r="2.02" fill="#a0b4ff" fill-opacity="0.82"/><circle cx="470.3" cy="26.0" r="1.07" fill="#f5d9a0" fill-opacity="0.74"/><circle cx="54.7" cy="139.6" r="1.77" fill="#f5d9a0" fill-opacity="0.74"/><circle cx="608.2" cy="19.1" r="0.95" fill="#e9ecff" fill-opacity="0.84"/><circle cx="345.6" cy="357.5" r="1.34" fill="#a0b4ff" fill-opacity="0.46"/><circle cx="36.8" cy="474.4" r="2.14" fill="#e9ecff" fill-opacity="0.35"/><circle cx="49.3" cy="147.2" r="1.31" fill="#e9ecff" fill-opacity="0.27"/><circle cx="850.0" cy="62.2" r="1.45" fill="#a0b4ff" fill-opacity="0.78"/><circle cx="541.0" cy="139.7" r="1.92" fill="#e9ecff" fill-opacity="0.84"/><circle cx="532.9" cy="227.6" r="2.05" fill="#f5d9a0" fill-opacity="0.46"/><circle cx="700.0" cy="306.7" r="1.43" fill="#f5d9a0" fill-opacity="0.45"/><circle cx="434.5" cy="105.6" r="2.03" fill="#e9ecff" fill-opacity="0.46"/><circle cx="578.1" cy="27.9" r="1.73" fill="#f5d9a0" fill-opacity="0.66"/><circle cx="446.0" cy="8.4" r="2.05" fill="#f5d9a0" fill-opacity="0.71"/><circle cx="306.9" cy="462.0" r="2.07" fill="#f5d9a0" fill-opacity="0.84"/><circle cx="189.5" cy="33.7" r="0.64" fill="#a0b4ff" fill-opacity="0.47"/><circle cx="426.3" cy="204.7" r="2.10" fill="#e9ecff" fill-opacity="0.64"/><circle cx="843.6" cy="254.1" r="1.80" fill="#e9ecff" fill-opacity="0.37"/><circle cx="692.5" cy="76.5" r="1.80" fill="#e9ecff" fill-opacity="0.46"/><circle cx="790.7" cy="310.3" r="0.90" fill="#a0b4ff" fill-opacity="0.30"/><circle cx="674.2" cy="435.1" r="0.97" fill="#e9ecff" fill-opacity="0.42"/><circle cx="633.4" cy="66.1" r="1.79" fill="#f5d9a0" fill-opacity="0.82"/><circle cx="496.1" cy="430.8" r="1.24" fill="#f5d9a0" fill-opacity="0.55"/><circle cx="701.9" cy="428.5" r="1.81" fill="#a0b4ff" fill-opacity="0.74"/><circle cx="14.2" cy="68.3" r="0.73" fill="#a0b4ff" fill-opacity="0.77"/><circle cx="677.7" cy="127.6" r="0.84" fill="#f5d9a0" fill-opacity="0.29"/><circle cx="660.1" cy="434.5" r="1.44" fill="#a0b4ff" fill-opacity="0.35"/><circle cx="838.6" cy="156.3" r="1.86" fill="#a0b4ff" fill-opacity="0.57"/><circle cx="883.1" cy="428.3" r="0.69" fill="#a0b4ff" fill-opacity="0.90"/><circle cx="956.6" cy="11.0" r="1.20" fill="#a0b4ff" fill-opacity="0.31"/><circle cx="43.6" cy="361.1" r="1.34" fill="#a0b4ff" fill-opacity="0.74"/><circle cx="901.2" cy="331.2" r="1.35" fill="#a0b4ff" fill-opacity="0.53"/><circle cx="21.2" cy="360.0" r="2.06" fill="#e9ecff" fill-opacity="0.40"/><circle cx="472.3" cy="127.6" r="0.93" fill="#e9ecff" fill-opacity="0.29"/><circle cx="720.7" cy="460.5" r="1.85" fill="#e9ecff" fill-opacity="0.86"/><circle cx="599.5" cy="90.1" r="0.80" fill="#f5d9a0" fill-opacity="0.47"/><circle cx="786.0" cy="254.5" r="1.47" fill="#f5d9a0" fill-opacity="0.71"/>
<circle cx="480" cy="250" r="90" fill="none" stroke="#8ea2ff" stroke-opacity="0.34" stroke-width="1.2" stroke-dasharray="2 11"/><circle cx="480" cy="250" r="132" fill="none" stroke="#8ea2ff" stroke-opacity="0.29" stroke-width="1.2" stroke-dasharray="2 11"/><circle cx="480" cy="250" r="174" fill="none" stroke="#8ea2ff" stroke-opacity="0.24" stroke-width="1.2" stroke-dasharray="2 11"/><circle cx="480" cy="250" r="216" fill="none" stroke="#8ea2ff" stroke-opacity="0.19" stroke-width="1.2" stroke-dasharray="2 11"/><circle cx="480" cy="250" r="258" fill="none" stroke="#8ea2ff" stroke-opacity="0.14" stroke-width="1.2" stroke-dasharray="2 11"/><path d="M480 224 C 482.08 243.5, 486.5 247.92, 506 250 C 486.5 252.08, 482.08 256.5, 480 276 C 477.92 256.5, 473.5 252.08, 454 250 C 473.5 247.92, 477.92 243.5, 480 224 Z" fill="#e9ecff" fill-opacity="0.95"/><path d="M700 108 C 700.96 117, 703 119.04, 712 120 C 703 120.96, 700.96 123, 700 132 C 699.04 123, 697 120.96, 688 120 C 697 119.04, 699.04 117, 700 108 Z" fill="#f5d9a0" fill-opacity="0.9"/><path d="M200 410 C 200.8 417.5, 202.5 419.2, 210 420 C 202.5 420.8, 200.8 422.5, 200 430 C 199.2 422.5, 197.5 420.8, 190 420 C 197.5 419.2, 199.2 417.5, 200 410 Z" fill="#a0b4ff" fill-opacity="0.85"/>
</svg>